<svg xmlns="http://www.w3.org/2000/svg" viewBox="164.9116929631938 139.9500330076517 220.17661407361243 98.9858882921435"><g><path d="M328.57281,172.82953c7.9312,12.56956 34.88065,12.4399 34.88065,12.4399c0,0 38.8438,2.21399 12.435,7.15325c-26.4088,4.93927 -100.88918,4.42797 -100.88918,4.42797c0,0 -74.48283,0.51129 -100.88918,-4.42797c-26.40635,-4.93927 12.43746,-7.1557 12.43746,-7.1557c0,0 26.9519,0.13211 34.88065,-12.4399c17.65805,-27.99406 36.67875,-32.87706 53.57353,-32.87706c16.89478,0 35.91547,4.883 53.57108,32.8795zM275.00418,191.7426c30.80496,0 48.02022,-1.04706 55.56734,-1.87393c7.49379,-0.82419 -5.10366,-3.9174 -5.10318,-3.91912c-6.9869,-0.93697 -9.88342,-8.5061 -9.88342,-8.5061c-13.37198,-29.14386 -40.57585,-27.10112 -40.57585,-27.10112c0,0 -27.20388,-2.04519 -40.57585,27.10112c0,0 -2.89652,7.56913 -9.88342,8.5061c0,0 -12.61114,3.09714 -5.11296,3.91912c7.54223,0.82688 24.75748,1.87393 55.56734,1.87393zM302.77072,186.80333l0.00244,0.05627c0,0.06605 0.28379,1.98647 1.90818,2.37055l1.40912,0.37919c-0.73636,0.02446 -1.49719,0.04648 -2.27025,0.0685c-1.74673,-1.07152 -1.72715,-2.81824 -1.72715,-2.81824c-1.11556,-13.98357 -12.81665,-24.98499 -27.08889,-24.98499c-14.27224,0 -25.97334,10.99898 -27.08889,24.98499c0,0 0.01713,1.74673 -1.72715,2.81824c-0.77306,-0.02202 -1.53388,-0.04648 -2.27025,-0.0685l1.40912,-0.37919c1.61951,-0.38409 1.90329,-2.3045 1.90329,-2.37055l0.00244,-0.05627c0.55533,-6.95998 3.68916,-13.41845 8.82658,-18.18402c5.16677,-4.79493 11.8919,-7.43214 18.94241,-7.43214c7.0505,0 13.77808,2.63965 18.94241,7.43214c5.13742,4.76557 8.27125,11.22404 8.82658,18.18402zM249.07488,189.04666c0,-14.31873 11.60813,-25.92685 25.92685,-25.92685c14.31873,0 25.92685,11.60569 25.92196,25.92685c0,0.2373 -0.00979,0.47216 -0.01713,0.70701c-7.12634,0.1737 -15.68626,0.28623 -25.90729,0.28623c-10.22103,0 -18.78094,-0.11253 -25.90729,-0.28623c-0.00489,-0.23485 -0.01713,-0.47216 -0.01713,-0.70701zM309.1607,205.62586c0,0 1.71492,-3.65247 1.75162,-7.34162c2.05496,-0.03915 4.14909,-0.08318 6.27744,-0.13455c0.72168,2.2311 0.81954,4.55762 0.54799,6.79607c0,0 -4.08792,33.99016 -42.73356,33.99016c-38.64564,0 -42.73356,-33.99016 -42.73356,-33.99016c-0.27155,-2.23845 -0.17614,-4.56252 0.54799,-6.79607c2.12347,0.05138 4.22247,0.09541 6.27255,0.13455c0.03915,3.68916 1.75162,7.34162 1.75162,7.34162c6.15267,12.65763 19.13813,20.84325 34.15896,20.84325c15.02084,0 28.00384,-8.18563 34.15896,-20.84325zM280.95381,198.57047c4.07325,0 10.49991,-0.01957 18.20115,-0.10764c-3.76989,9.65836 -13.1567,16.5058 -24.15078,16.5058c-10.99408,0 -20.38333,-6.84745 -24.15322,-16.5058c7.70368,0.08807 14.12791,0.10764 18.2036,0.10764c3.73564,0 5.92272,-0.01467 5.93739,-0.01467c0.02446,0 2.21643,0.01467 5.95941,0.01467z" fill="#ffffff"></path></g></svg>